<svg xmlns="http://www.w3.org/2000/svg" viewBox="0 0 576 512" fill="#5A31D7"><path d="M576 240c0-23.63-12.95-44.04-32-55.12V32.01C544 23.26 537.02 0 512 0c-7.12 0-14.19 2.38-19.98 7.02l-85.03 68.03C364.28 109.19 310.66 128 256 128H64c-35.35 0-64 28.65-64 64v96c0 35.35 28.65 64 64 64h33.7c-1.39 10.48-2.18 21.14-2.18 32 0 39.77 9.26 77.35 25.56 110.94 5.19 10.69 16.52 17.06 28.4 17.06h74.28c26.05 0 41.69-29.84 25.9-50.56C216.58 417.83 200.86 368.19 200.86 320c0-3.98.1-7.92.31-11.82l-.01-.18h55.34c54.02 0 107.18 18.3 149.48 52.2l84.02 67.22c5.8 4.64 12.87 7.02 19.98 7.02 25.02 0 32-23.26 32-32.01V295.13c19.05-11.09 32-31.5 32-55.13zm-96 141.42l-33.05-26.44C392.95 311.78 325.12 288 256 288v-96c69.12 0 136.95-23.78 190.95-66.98L480 98.58v282.84z"/></svg>