<svg xmlns="http://www.w3.org/2000/svg" viewBox="0 0 512 512" fill="#5A31D7"><path d="M304 48c0 26.51-21.49 48-48 48s-48-21.49-48-48 21.49-48 48-48 48 21.49 48 48zm-48 368c-167.78 0-191.14-40.27-192-64 0-17.67 14.33-32 32-32h320c17.67 0 32 14.33 32 32-.86 23.73-24.22 64-192 64zm-96-176c0 44.18-35.82 80-80 80S0 284.18 0 240s35.82-80 80-80c12.52 0 24.32 2.96 34.84 8.1C91.72 143.21 68.08 96 16 96c-8.84 0-16-7.16-16-16s7.16-16 16-16c88.22 0 144 72.71 144 168zM80 288c26.47 0 48-21.53 48-48s-21.53-48-48-48-48 21.53-48 48 21.53 48 48 48zm352-192c-52.08 0-75.72 47.21-98.84 72.1C343.68 162.96 355.48 160 368 160c44.18 0 80 35.82 80 80s-35.82 80-80 80-80-35.82-80-80c0-95.29 55.78-168 144-168 8.84 0 16 7.16 16 16s-7.16 16-16 16zm16 144c0-26.47-21.53-48-48-48s-48 21.53-48 48 21.53 48 48 48 48-21.53 48-48z"/></svg>