<svg xmlns="http://www.w3.org/2000/svg" viewBox="0 0 512 512" fill="#5A31D7"><path d="M288 39.056v16.659c0 10.804 7.281 20.159 17.686 23.066C383.204 100.434 440 171.518 440 256c0 101.689-82.295 184-184 184-101.689 0-184-82.295-184-184 0-84.47 56.786-155.564 134.312-177.219C216.719 75.874 224 66.517 224 55.712V39.064c0-15.709-14.834-27.153-29.124-23.516C86.126 43.857 8 141.297 8 256c0 136.966 111.033 248 248 248s248-111.034 248-248c0-114.695-78.126-212.14-186.876-240.444C302.825 11.91 288 23.35 288 39.056z"/></svg>